<svg width="22" height="23" viewBox="0 0 22 23" fill="none" xmlns="http://www.w3.org/2000/svg">
<path d="M10.4044 21.6881C10.0112 21.6351 9.61518 21.6021 9.22605 21.5272C6.00099 20.9064 3.59062 19.1512 2.01074 16.2774C1.12249 14.6618 0.718242 12.9094 0.832367 11.0724C1.06887 7.2485 2.88387 4.383 6.22374 2.51437C7.8318 1.61443 9.59043 1.21912 11.4267 1.33256C15.2499 1.56837 18.1106 3.38475 19.9861 6.72187C20.6832 7.96143 21.0517 9.31306 21.1507 10.7348C21.1542 10.7926 21.1727 10.8489 21.1844 10.9067V12.1002C21.1734 12.1579 21.1549 12.2143 21.1507 12.2721C21.0517 13.6931 20.6764 15.0392 19.9882 16.2843C18.4042 19.1532 15.9972 20.9098 12.7736 21.5299C12.3851 21.6049 11.9891 21.6379 11.5959 21.6908H10.4024L10.4044 21.6881ZM11.0094 2.23868C5.9123 2.22631 1.75293 6.37881 1.74055 11.4931C1.72818 16.5909 5.87999 20.751 10.9936 20.7634C16.0907 20.7757 20.2501 16.6232 20.2625 11.5089C20.2749 6.41112 16.1231 2.25106 11.0094 2.23868Z" fill="#005CFF"/>
<path d="M8.70361 10.9163C8.72905 10.4846 8.93736 10.2604 9.36361 10.1401C9.9198 9.98337 10.4609 9.79844 11.0507 9.82662C11.708 9.85756 12.3123 10.2632 12.4065 10.8448C12.4649 11.2009 12.4416 11.5921 12.3591 11.9455C12.1562 12.8076 11.8936 13.656 11.6667 14.5133C11.6186 14.6969 11.6056 14.8928 11.5994 15.0832C11.5891 15.4009 11.7321 15.6023 12.0469 15.6353C12.3309 15.6642 12.6231 15.6229 12.9111 15.6023C12.9998 15.5954 13.0851 15.5514 13.2088 15.5129C13.1572 15.7109 13.1181 15.8828 13.0658 16.0506C13.0555 16.0836 12.9998 16.1117 12.9599 16.1255C12.5474 16.2678 12.1418 16.4431 11.7183 16.5359C11.0996 16.6721 10.4787 16.6686 9.92393 16.2802C9.53274 16.0059 9.36843 15.6257 9.38905 15.152C9.41793 14.481 9.65511 13.8588 9.82768 13.2208C9.96449 12.7169 10.0931 12.2102 10.2216 11.7042C10.2388 11.6347 10.2416 11.5598 10.2443 11.4869C10.2656 10.9342 10.0236 10.7032 9.46674 10.7671C9.21443 10.7967 8.96555 10.8647 8.7043 10.917H8.70499L8.70361 10.9163Z" fill="#005CFF"/>
<path d="M12.0046 6.40907C12.7629 6.41457 13.326 6.94669 13.3157 7.62869C13.3081 8.13607 12.9362 8.57607 12.3862 8.728C11.7777 8.89644 11.1019 8.62419 10.8352 8.10444C10.4557 7.36538 10.9871 6.49707 11.8671 6.41663C11.92 6.41182 11.973 6.41044 12.0046 6.40907Z" fill="#005CFF"/>
</svg>
