<svg width="20" height="18" viewBox="0 0 20 18" fill="none" xmlns="http://www.w3.org/2000/svg">
<path d="M4.83823 14.7691C4.67198 15.1541 4.44448 15.5566 4.32285 15.9853C3.98423 17.1911 3.1696 17.8167 1.96998 17.7283C0.911228 17.6505 0.0904779 16.8358 0.0082279 15.7815C-0.0818971 14.6046 0.572603 13.7462 1.76348 13.4181C2.19485 13.3 2.5991 13.0856 2.99285 12.9255C2.73648 12.3742 2.2981 11.8125 2.4206 11.6331C2.86248 10.9891 3.4496 10.0651 4.06648 9.99596C5.4201 9.84196 5.71235 8.67034 6.42373 8.22846C5.18385 6.87921 3.9781 5.55359 2.75748 4.24021C2.31298 3.76246 1.72848 0.864463 2.0566 0.323713C2.16598 0.142588 2.49848 0.0060883 2.7321 0.0017133C4.4541 -0.0175367 6.07635 0.0988379 7.22085 1.74646C7.94273 2.78159 8.96123 3.61284 9.73123 4.41696C10.8259 3.41334 11.9494 2.52871 12.8839 1.47696C13.7046 0.552963 14.5735 0.133838 15.8239 0.0900878C18.0464 0.0139628 17.8565 -0.236287 17.7856 2.08771C17.7497 3.29346 17.3289 4.16321 16.4049 4.93146C15.2875 5.86159 14.2769 6.92034 13.1131 8.02546C14.0459 8.67384 14.3504 9.84196 15.7267 10.0248C16.3287 10.1045 16.8966 10.9681 17.3175 11.5841C17.4584 11.7923 17.0987 12.3392 16.8949 12.9517C17.1302 13.0716 17.4986 13.3455 17.9116 13.4548C19.1847 13.7935 19.8349 14.602 19.7386 15.8436C19.6564 16.9128 18.7665 17.7563 17.6657 17.8097C16.5667 17.8622 15.6874 17.1071 15.3907 15.9153C15.2919 15.5155 15.081 15.1427 14.9252 14.7708C14.3862 15.036 13.8262 15.4866 13.6477 15.3667C12.9976 14.9353 12.0692 14.3675 11.987 13.7506C11.8015 12.3803 10.6124 12.0566 9.91848 10.9961C9.26223 12.0102 8.0451 12.2403 7.83948 13.629C7.74235 14.2852 6.79998 14.8767 6.13235 15.3483C5.96173 15.4708 5.38948 15.0263 4.8426 14.7673L4.83823 14.7717V14.7691ZM5.34135 10.6653C5.97923 11.3216 6.50773 11.8667 7.09223 12.467C7.40985 12.1782 7.69248 11.9306 7.96548 11.6733C10.5607 9.21721 13.1052 6.70684 15.7714 4.33209C16.8424 3.37834 16.9876 2.36859 16.7601 1.14359C15.4301 0.812838 14.3232 0.965088 13.5042 2.13671C13.2094 2.55759 12.7946 2.89446 12.435 3.26896C10.0865 5.71896 7.7371 8.16634 5.34223 10.6645H5.34048L5.34135 10.6653ZM9.27885 5.24559C8.00135 3.90509 6.82885 2.47184 5.4271 1.31421C4.94498 0.916088 3.89323 1.20484 3.10135 1.18121C3.14598 1.94509 2.89485 2.95746 3.29035 3.42909C4.47773 4.83959 5.91448 6.03659 7.2786 7.33771C7.98123 6.60359 8.5981 5.95696 9.27973 5.24559H9.27798H9.27885ZM12.4464 8.58109C11.8024 9.27759 11.245 9.88134 10.6342 10.5428C11.2905 11.1676 11.9625 11.8081 12.6695 12.4792C13.2837 11.865 13.8437 11.305 14.4457 10.7012C13.8017 10.017 13.1875 9.36509 12.4464 8.57934V8.58109ZM3.91423 13.5887C3.10398 13.881 2.49323 14.1216 1.87023 14.3193C1.1711 14.5425 0.727478 15.0473 0.937478 15.7045C1.08273 16.1612 1.60073 16.6705 2.06098 16.8175C2.72773 17.0301 3.2186 16.5672 3.44173 15.8768C3.64385 15.2538 3.88798 14.644 4.16798 13.8731C4.15135 13.8538 3.9746 13.6543 3.91335 13.587V13.5887H3.91423ZM15.5736 13.8075C15.8764 14.6597 16.1187 15.2722 16.3104 15.897C16.523 16.5961 16.9797 16.9557 17.6911 16.8901C18.3964 16.8245 18.8426 16.4062 18.868 15.6738C18.8907 14.9581 18.5145 14.5503 17.8154 14.3351C17.2895 14.1732 16.8074 13.8661 16.306 13.6237C16.2176 13.5817 16.1275 13.5415 15.9691 13.4697C15.7731 13.636 15.5736 13.8066 15.5736 13.804V13.8057V13.8075ZM6.0886 14.3211C6.32048 14.077 6.57248 13.8101 6.83148 13.5336C5.93898 12.6437 5.11385 11.8203 4.17935 10.8885C3.92035 11.1851 3.67885 11.4607 3.40498 11.7748C4.28873 12.6148 5.13923 13.4225 6.0886 14.3237V14.322V14.3211ZM15.6007 10.9453C14.6514 11.8755 13.8201 12.6918 12.8795 13.6158C13.1717 13.8792 13.4439 14.1207 13.6582 14.3167C14.5884 13.4435 15.466 12.6183 16.3734 11.7678C16.1021 11.4791 15.8685 11.2315 15.6007 10.9471V10.9453Z" fill="#007CBE"/>
</svg>
