<svg width="28" height="28" viewBox="0 0 28 28" fill="none" xmlns="http://www.w3.org/2000/svg">
<path d="M28 16.9563C27.9396 17.1444 27.8904 17.3385 27.816 17.5205C27.5536 18.1641 27.1102 18.6469 26.4678 18.9184C26.2758 18.9999 26.2426 19.1035 26.2426 19.2845C26.2477 21.8461 26.2457 24.4066 26.2457 26.9681C26.2457 27.6963 25.9451 28 25.2202 28H20.3272C19.6386 28 19.331 27.6902 19.3299 26.9963C19.3299 25.5652 19.3249 24.134 19.337 22.7029C19.337 22.5692 19.4114 22.4032 19.5069 22.3097C20.3614 21.4729 20.8349 20.4692 20.845 19.2684C20.855 18.0012 20.8802 16.733 20.8349 15.4678C20.7535 13.1648 19.722 11.3565 17.8471 10.033C17.653 9.8962 17.6028 9.78054 17.645 9.54721C18.0662 7.23408 19.8467 5.54348 22.1952 5.24378C22.2354 5.23875 22.2756 5.22467 22.3671 5.20154C22.1218 5.11605 21.9237 5.06174 21.7377 4.98028C20.7032 4.52168 20.0628 3.42746 20.1955 2.3594C20.3524 1.09622 21.1305 0.262491 22.351 0.0462627C22.3942 0.038217 22.4344 0.0160914 22.4756 0H23.0768C23.1281 0.0160914 23.1784 0.038217 23.2306 0.0482741C24.3124 0.248411 25.0232 0.872957 25.2916 1.93901C25.567 3.03222 25.2534 3.96552 24.3596 4.65644C24.0399 4.90385 23.6378 5.04364 23.288 5.22366C23.293 5.22366 23.3412 5.23875 23.3895 5.24478C25.563 5.50526 27.3234 7.06009 27.8431 9.18315C27.9014 9.42049 27.9457 9.66086 27.9969 9.90022V16.9563H28Z" fill="white"/>
<path d="M13.7362 10.4805C11.8331 10.1305 11.2772 8.6662 11.4441 7.45935C11.623 6.17103 12.7148 5.25584 14.0389 5.26187C15.2875 5.2679 16.4165 6.25451 16.5743 7.47745C16.7633 8.94277 15.9611 10.034 14.3244 10.4825C15.2453 10.563 16.0706 10.8104 16.8055 11.3022C18.3256 12.3189 19.154 13.74 19.2013 15.5764C19.2324 16.7873 19.2234 18.0002 19.2053 19.2121C19.1892 20.3224 18.6463 21.1109 17.643 21.5715C17.4721 21.6499 17.451 21.7485 17.452 21.9054C17.456 23.6101 17.455 25.3137 17.454 27.0184C17.454 27.6933 17.1463 27.999 16.4657 27.999C14.817 27.999 13.1682 28 11.5185 27.999C10.862 27.999 10.5513 27.6852 10.5503 27.0265C10.5503 26.4432 10.5443 25.8598 10.5564 25.2765C10.5584 25.1739 10.6107 25.0442 10.6841 24.9748C11.5034 24.2044 11.9779 23.2671 12.0523 22.1437C12.1539 20.613 12.0171 19.1226 11.2631 17.7427C10.7112 16.732 9.96725 15.8983 9.00514 15.2637C8.86439 15.1711 8.82317 15.0836 8.8473 14.9117C9.17705 12.5342 11.1556 10.7138 13.7352 10.4805H13.7362Z" fill="white"/>
<path d="M5.59907 15.7404C5.89665 15.7947 6.15703 15.8309 6.41038 15.8913C8.74276 16.4484 10.3503 18.4307 10.4267 20.8615C10.4418 21.3513 10.4548 21.8531 10.3724 22.3329C10.2256 23.1837 9.72598 23.8113 8.93578 24.1713C8.72165 24.2689 8.66836 24.3855 8.67138 24.6017C8.68244 25.4033 8.67741 26.2059 8.6754 27.0074C8.67339 27.6842 8.36174 27.999 7.69319 28H2.74593C2.07537 28 1.7607 27.6832 1.7597 27.0114C1.7597 26.1727 1.75668 25.3339 1.76271 24.4961C1.76372 24.3503 1.72451 24.2799 1.58175 24.2125C0.559324 23.7378 0.0305172 22.9313 0.00638917 21.7998C-0.0147229 20.8585 -0.00466951 19.9202 0.378363 19.0341C1.17559 17.1876 2.56296 16.1035 4.55352 15.7977C4.63295 15.7857 4.71237 15.7666 4.8702 15.7354C4.09509 15.5815 3.51702 15.2406 3.09981 14.6543C2.6836 14.0689 2.52878 13.4172 2.66148 12.7112C2.91885 11.3364 3.96339 10.5087 5.3598 10.558C6.67277 10.6043 7.66001 11.5617 7.81081 12.9365C7.95256 14.2288 7.08496 15.3462 5.59907 15.7394V15.7404Z" fill="white"/>
</svg>
