<svg width="20" height="29" viewBox="0 0 20 29" fill="none" xmlns="http://www.w3.org/2000/svg">
<path d="M9.20786 28.18H9.15786C9.11786 28.09 9.08786 28 9.03786 27.91C7.07786 24.58 5.12786 21.24 3.15786 17.92C2.04786 16.04 1.16786 14.07 0.46786 12.01C-0.26214 9.88 -0.122138 7.78 0.777862 5.77C2.18786 2.63 4.62786 0.75 8.01786 0.13C8.33786 0.0700001 8.66786 0.04 8.98786 0C9.35786 0 9.71786 0 10.0879 0C10.3679 0.04 10.6479 0.0699997 10.9279 0.11C12.3979 0.32 13.7579 0.85 14.9779 1.7C16.7279 2.91 17.9479 4.53 18.6179 6.56C19.1579 8.22 19.2879 9.89 18.7479 11.58C18.1879 13.37 17.3579 15.02 16.3779 16.61C14.1079 20.29 11.8079 23.97 9.52786 27.65C9.41786 27.83 9.31786 28.01 9.20786 28.19V28.18ZM14.9679 9.3C15.0179 6.32 12.5779 3.84 9.55786 3.79C6.54786 3.74 4.09786 6.15 4.03786 9.2C3.97786 12.2 6.40786 14.69 9.43786 14.74C12.4379 14.79 14.9179 12.35 14.9679 9.29V9.3Z" fill="white"/>
</svg>
