<svg width="28" height="28" viewBox="0 0 28 28" fill="none" xmlns="http://www.w3.org/2000/svg">
<path d="M3.28165 28.008C2.93868 27.7601 2.56791 27.5433 2.25904 27.2587C1.69625 26.7389 1.16884 26.181 0.630056 25.6352C-0.210648 24.7838 -0.21128 23.7232 0.635741 22.8724C5.9042 17.5809 11.1752 12.2907 16.4455 7.0004C16.4961 6.94969 16.551 6.90277 16.5832 6.87298C16.9155 7.20897 17.2408 7.53735 17.585 7.88475C17.549 7.9361 17.4827 8.03309 17.4157 8.12882C16.0084 10.1308 14.6012 12.1322 13.1951 14.1348C13.1269 14.2318 13.0581 14.3294 13.005 14.4347C12.9122 14.6185 12.945 14.7935 13.0909 14.9361C13.2375 15.0794 13.4124 15.1003 13.5937 15.0071C13.6821 14.9615 13.7642 14.9025 13.8457 14.8448C15.8625 13.4172 17.8787 11.9889 19.8955 10.5613C19.977 10.5036 20.0604 10.4484 20.1248 10.4047C20.4596 10.7394 20.7867 11.0665 21.1272 11.4076C21.083 11.4551 21.0255 11.5223 20.9636 11.5844C15.7646 16.8037 10.5675 22.0249 5.35973 27.2359C5.05781 27.5376 4.66998 27.7532 4.32195 28.0093H3.28292L3.28165 28.008Z" fill="#2563EB"/>
<path d="M28 1.3824C27.6836 1.68035 27.3671 1.9783 27.0684 2.26041C26.6174 1.80777 26.1689 1.35767 25.7382 0.925959C26.0243 0.641319 26.3319 0.33449 26.6578 0.00927734C27.0816 0.425144 27.5408 0.876512 28 1.32725V1.3824Z" fill="#005CFF"/>
<path d="M18.2268 8.51173C18.6595 8.94535 19.0631 9.35043 19.4806 9.76884C18.1188 10.7337 16.7405 11.71 15.3623 12.6862C15.3491 12.6729 15.3358 12.6603 15.3219 12.6469C16.2927 11.2643 17.2642 9.88168 18.2261 8.51173H18.2268Z" fill="#005CFF"/>
<path d="M22.5635 4.09822C22.8547 3.80533 23.1617 3.4966 23.4466 3.20943C23.8742 3.63607 24.3233 4.08363 24.761 4.52042C24.4768 4.79682 24.1609 5.10302 23.8609 5.39526C23.4466 4.98066 22.9975 4.53183 22.5642 4.09822H22.5635Z" fill="#005CFF"/>
<path d="M21.9135 4.79998C22.3273 5.21585 22.7707 5.66088 23.1989 6.09133C22.902 6.38548 22.5938 6.69104 22.3115 6.97061C21.8971 6.55474 21.4499 6.10591 21.0236 5.67736C21.2901 5.41491 21.6034 5.10554 21.9135 4.79998Z" fill="#005CFF"/>
<path d="M20.313 6.35378C20.7495 6.79183 21.1935 7.2375 21.6135 7.6597C21.3091 7.96653 20.9983 8.2797 20.7008 8.57892C20.2814 8.15798 19.833 7.70788 19.3921 7.26476C19.6858 6.97378 19.9959 6.66758 20.313 6.35378Z" fill="#005CFF"/>
<path d="M26.3673 2.95331C26.0774 3.24239 25.7748 3.54414 25.4931 3.82561C25.051 3.37742 24.6012 2.92161 24.1654 2.48039C24.4351 2.20779 24.7408 1.89906 25.0314 1.60555C25.4685 2.04677 25.9157 2.49814 26.3673 2.95394V2.95331Z" fill="#005CFF"/>
</svg>
