<svg width="34" height="34" viewBox="0 0 34 34" fill="none" xmlns="http://www.w3.org/2000/svg">
<g clip-path="url(#clip0_404_373)">
<path d="M8.95518 26.52C8.86324 26.98 8.7713 27.44 8.69774 27.9C8.45869 29.14 8.21965 30.36 7.9806 31.6C7.96221 31.74 7.94382 31.86 8.03576 31.96C8.1277 32.06 8.23803 32.04 8.32998 31.96C8.75291 31.72 9.17584 31.46 9.59877 31.22C11.3089 30.24 13.019 29.26 14.7107 28.24C15.0785 28.02 15.4463 27.92 15.8692 27.92C17.2299 27.96 18.5723 27.82 19.8962 27.52C22.1396 27.04 24.2543 26.16 26.2402 24.74C27.4722 23.86 28.5939 22.78 29.5685 21.46C30.6718 19.94 31.4993 18.2 31.867 16.18C32.1061 14.84 32.1428 13.48 31.9406 12.14C31.6648 10.28 31.0028 8.64 30.065 7.18C29.3478 6.08 28.5387 5.12 27.6009 4.3C27.3435 4.06 27.0677 3.82 26.7918 3.6C25.5782 2.64 24.2726 1.9 22.8935 1.34C21.3121 0.679998 19.694 0.279998 18.0206 0.0999985C16.4944 -0.0600015 14.9498 -0.0400015 13.4235 0.179998C12.0076 0.379998 10.6285 0.739998 9.26778 1.3C7.85188 1.88 6.52792 2.62 5.27751 3.62C3.88 4.72 2.66637 6.04 1.69179 7.72C0.7356 9.38 0.128786 11.24 0.0184556 13.34C-0.0550976 14.58 0.0736206 15.8 0.367834 17C0.772377 18.58 1.43436 19.98 2.317 21.24C3.19963 22.5 4.22938 23.54 5.35107 24.42C6.30726 25.18 7.33701 25.78 8.40353 26.28C8.58741 26.36 8.7713 26.44 8.95518 26.54V26.52ZM33.1726 15.04H33.1358C33.1358 15.04 33.1358 15.08 33.1358 15.1C32.9703 17.14 32.3819 18.98 31.4809 20.66C30.5798 22.32 29.4582 23.7 28.1526 24.86C26.3321 26.48 24.3278 27.58 22.1948 28.32C21.1282 28.7 20.0249 28.96 18.9216 29.12C17.8735 29.28 16.807 29.36 15.7405 29.32C15.5198 29.32 15.3359 29.42 15.1337 29.54C15.1888 29.56 15.2256 29.58 15.2624 29.6C16.8989 30.26 18.5907 30.58 20.3008 30.62C20.595 30.62 20.8892 30.62 21.1834 30.62C21.2754 30.62 21.3673 30.62 21.4592 30.68C22.9487 31.54 24.4565 32.4 25.946 33.28C26.3505 33.5 26.7367 33.74 27.1412 33.96C27.2883 34.04 27.4171 33.96 27.4354 33.82C27.4354 33.76 27.4354 33.68 27.4171 33.6C27.2148 32.56 27.0125 31.52 26.8102 30.46C26.7367 30.12 26.6815 29.8 26.608 29.46C26.8286 29.36 27.0493 29.26 27.2516 29.16C28.9617 28.32 30.5063 27.16 31.7935 25.48C32.4555 24.6 33.0071 23.64 33.4116 22.52C34.1288 20.5 34.2023 18.44 33.6323 16.36C33.5036 15.92 33.3381 15.48 33.191 15.04H33.1726Z" fill="white"/>
<path d="M8.95518 26.52C8.77129 26.44 8.58741 26.36 8.40353 26.26C7.33701 25.76 6.32565 25.14 5.35107 24.4C4.21099 23.52 3.18125 22.48 2.317 21.22C1.45274 19.96 0.772377 18.58 0.367834 16.98C0.0736206 15.8 -0.0550976 14.58 0.0184556 13.34C0.128786 11.26 0.7356 9.4 1.71018 7.72C2.68476 6.04 3.89839 4.72 5.2959 3.62C6.54631 2.64 7.88866 1.88 9.28617 1.3C10.6469 0.739998 12.026 0.379998 13.4419 0.179998C14.9682 -0.0400015 16.4944 -0.0600015 18.039 0.0999985C19.694 0.279998 21.3305 0.679998 22.9119 1.34C24.2726 1.9 25.5782 2.64 26.8102 3.6C27.0861 3.82 27.3435 4.06 27.6193 4.3C28.5571 5.12 29.3662 6.08 30.0834 7.18C31.0212 8.64 31.6831 10.28 31.959 12.14C32.1612 13.5 32.1428 14.84 31.8854 16.18C31.5176 18.22 30.6902 19.94 29.5869 21.46C28.6307 22.78 27.509 23.84 26.2586 24.74C24.291 26.16 22.158 27.04 19.9146 27.52C18.5723 27.82 17.2299 27.96 15.8876 27.92C15.4646 27.92 15.1153 28.02 14.7291 28.24C13.019 29.24 11.3089 30.22 9.61716 31.22C9.19423 31.46 8.77129 31.7 8.34836 31.96C8.23803 32.02 8.14609 32.04 8.05415 31.96C7.96221 31.86 7.96221 31.74 7.99899 31.6C8.23803 30.36 8.47708 29.14 8.71613 27.9C8.80807 27.44 8.90001 27 8.97357 26.52H8.95518ZM8.14609 16.38C9.19423 16.38 10.0585 15.28 10.0585 13.98C10.0585 12.64 9.19423 11.56 8.1277 11.58C7.06118 11.58 6.19693 12.62 6.21532 14C6.23371 15.48 7.17151 16.4 8.14609 16.38ZM22.0109 13.94C21.9741 15.2 22.82 16.32 23.8497 16.38C24.9346 16.44 25.8173 15.4 25.854 14.02C25.8908 12.76 25.045 11.64 24.0152 11.58C22.9303 11.52 22.0477 12.56 22.0109 13.94ZM15.9979 16.38C17.046 16.42 17.9471 15.36 17.9655 14.04C17.9838 12.72 17.1564 11.6 16.1082 11.58C15.0417 11.56 14.1407 12.6 14.1223 13.92C14.1039 15.26 14.9314 16.36 15.9979 16.38Z" fill="url(#paint0_linear_404_373)"/>
<path d="M33.0573 15C33.2044 15.44 33.3699 15.88 33.4986 16.32C34.0687 18.4 33.9951 20.46 33.278 22.48C32.8918 23.58 32.3402 24.56 31.6598 25.44C30.3726 27.1 28.828 28.26 27.1179 29.12C26.8972 29.22 26.695 29.32 26.4743 29.42C26.5479 29.76 26.603 30.08 26.6766 30.42C26.8789 31.46 27.0811 32.5 27.2834 33.56C27.2834 33.62 27.3018 33.7 27.3018 33.78C27.3018 33.94 27.1363 34.02 27.0076 33.92C26.603 33.7 26.2169 33.46 25.8123 33.24C24.3229 32.38 22.815 31.5 21.3256 30.64C21.252 30.6 21.1417 30.58 21.0498 30.58C20.7555 30.58 20.4613 30.6 20.1671 30.58C18.457 30.52 16.7653 30.2 15.1287 29.56C15.0919 29.56 15.0552 29.52 15 29.5C15.2023 29.36 15.3862 29.26 15.6068 29.28C16.6733 29.32 17.7215 29.24 18.788 29.08C19.8913 28.92 20.9946 28.66 22.0611 28.28C24.1942 27.54 26.1985 26.44 28.0189 24.82C29.3245 23.66 30.4646 22.3 31.3472 20.62C32.2482 18.94 32.8367 17.1 33.0022 15.06C33.0022 15.06 33.0022 15.02 33.0022 15H33.0389H33.0573Z" fill="url(#paint1_linear_404_373)" fill-opacity="0.9"/>
<path d="M8.14603 16.38C7.17145 16.38 6.23364 15.46 6.21525 14C6.19687 12.64 7.06112 11.6 8.12764 11.58C9.19416 11.58 10.0584 12.64 10.0584 13.98C10.0584 15.28 9.19416 16.38 8.14603 16.38Z" fill="white"/>
<path d="M22.0108 13.94C22.0476 12.56 22.9486 11.52 24.0151 11.58C25.0449 11.64 25.8907 12.76 25.854 14.02C25.8172 15.4 24.9345 16.44 23.8496 16.38C22.8199 16.32 21.974 15.2 22.0108 13.94Z" fill="white"/>
<path d="M15.9979 16.38C14.9313 16.34 14.1039 15.26 14.1222 13.92C14.1222 12.6 15.0417 11.56 16.1082 11.58C17.1563 11.6 17.9838 12.72 17.9654 14.04C17.947 15.34 17.046 16.4 15.9979 16.38Z" fill="white" fill-opacity="0.5"/>
</g>
<defs>
<linearGradient id="paint0_linear_404_373" x1="16.0472" y1="-0.00497437" x2="16.0472" y2="32.0128" gradientUnits="userSpaceOnUse">
<stop stop-color="#007CBE"/>
<stop offset="1" stop-color="#003958"/>
</linearGradient>
<linearGradient id="paint1_linear_404_373" x1="24.4387" y1="15" x2="24.4387" y2="33.9641" gradientUnits="userSpaceOnUse">
<stop stop-color="#007CBE"/>
<stop offset="1" stop-color="#003958"/>
</linearGradient>
<clipPath id="clip0_404_373">
<rect width="34" height="34" fill="white"/>
</clipPath>
</defs>
</svg>
