<svg width="16" height="18" viewBox="0 0 16 18" fill="none" xmlns="http://www.w3.org/2000/svg">
<path d="M3.83333 8.16663H5.5V9.83329H3.83333V8.16663ZM13.8333 2.33329H13V0.666626H11.3333V2.33329H4.66667V0.666626H3V2.33329H2.16667C1.24167 2.33329 0.508333 3.08329 0.508333 3.99996L0.5 15.6666C0.5 16.5833 1.24167 17.3333 2.16667 17.3333H13.8333C14.75 17.3333 15.5 16.5833 15.5 15.6666V3.99996C15.5 3.08329 14.75 2.33329 13.8333 2.33329ZM13.8333 15.6666H2.16667V7.33329H13.8333V15.6666ZM13.8333 5.66663H2.16667V3.99996H13.8333V5.66663ZM10.5 8.16663H12.1667V9.83329H10.5V8.16663ZM7.16667 8.16663H8.83333V9.83329H7.16667V8.16663Z" fill="#196EEE"/>
</svg>
