<svg width="22" height="24" viewBox="0 0 22 24" fill="none" xmlns="http://www.w3.org/2000/svg">
<g clip-path="url(#clip0_593_438)">
<path d="M2.08772 22.5814V6.7675H5.70121C6.10684 6.7675 6.20103 6.66616 6.20103 6.23491V4.05638C6.20103 3.70706 6.09172 3.53959 5.86278 3.53528C5.62834 3.53097 5.51353 3.70491 5.51353 4.06716V6.03366H2.61228C2.65284 5.98119 2.6824 5.93591 2.71953 5.89781C3.77553 4.78878 4.83153 3.68047 5.89234 2.57647C5.95422 2.51178 6.06147 2.46003 6.14878 2.46003C9.5574 2.45428 12.9653 2.45572 16.374 2.45572C16.409 2.45572 16.4448 2.45931 16.5128 2.46291V4.88006C16.5128 5.16325 16.6414 5.32856 16.8552 5.32928C17.069 5.32928 17.199 5.16469 17.1997 4.88222C17.201 3.98306 17.201 3.08606 17.1997 2.18691C17.1997 1.86419 17.0793 1.73769 16.7707 1.73769C13.1475 1.73769 9.52372 1.73553 5.90059 1.74344C5.78715 1.74344 5.64759 1.80956 5.56578 1.89366C4.2719 3.24059 2.99315 4.60406 1.69171 5.94309C1.46621 6.17597 1.38097 6.3995 1.38165 6.72294C1.39059 12.0611 1.38853 17.4 1.38853 22.7381C1.38853 23.2118 1.47378 23.3002 1.92615 23.3002H11.25C11.5402 23.298 11.6997 23.1701 11.6997 22.9408C11.6997 22.7115 11.5402 22.5829 11.25 22.5829H2.08772V22.5814Z" fill="#005CFF"/>
<path d="M12.3892 21.8627C12.3892 22.2199 12.3872 22.5484 12.3892 22.8768C12.3927 23.1687 12.5178 23.3002 12.7997 23.3002C15.5064 23.3016 18.2124 23.3016 20.919 23.3002C21.1982 23.3002 21.3219 23.1665 21.324 22.8711C21.3274 22.5441 21.324 22.2156 21.324 21.862C21.4525 21.862 21.566 21.8692 21.6774 21.8605C21.8561 21.8483 22.0012 21.7405 21.9991 21.5608C21.9902 20.8528 22.0349 20.1283 21.9118 19.4391C21.7179 18.3494 20.7424 17.5854 19.6809 17.5538C19.5447 17.5495 19.4079 17.5466 19.2725 17.5538C19.0573 17.5638 18.9122 17.7191 18.9191 17.9225C18.9246 18.1166 19.0662 18.2495 19.2718 18.2718C19.5825 18.3063 19.9098 18.2955 20.1992 18.3997C20.8702 18.6405 21.2415 19.1767 21.3109 19.9077C21.3494 20.3066 21.3178 20.7127 21.3178 21.1317H12.3672C12.3892 20.6365 12.3638 20.1391 12.4435 19.659C12.5776 18.8526 13.2947 18.279 14.1011 18.2732C15.1901 18.2661 16.2777 18.2711 17.3667 18.2711C17.4245 18.2711 17.4815 18.2732 17.5379 18.2697C17.7442 18.2546 17.8824 18.1122 17.8851 17.9175C17.8885 17.7212 17.751 17.5732 17.5482 17.5545C17.5056 17.5509 17.4623 17.5531 17.4197 17.5531C16.3458 17.5531 15.2712 17.5516 14.198 17.5531C12.7447 17.5552 11.7059 18.6377 11.7004 20.1528C11.699 20.5495 11.7004 20.947 11.7004 21.3437C11.7004 21.7599 11.7973 21.8627 12.1905 21.8663H12.3892L12.3913 21.8641L12.3892 21.8627ZM20.6282 22.5656H13.0939V21.8742H20.6282V22.5656Z" fill="#005CFF"/>
<path d="M16.5131 15.3947C16.5131 15.0899 16.5014 14.8074 16.5151 14.5257C16.5557 13.7042 16.3405 12.9531 15.926 12.2681C15.6207 11.7628 15.2776 11.2827 14.9394 10.8004C13.9508 9.3859 14.5455 7.41725 16.1253 6.8904C17.1215 6.55834 18.1926 6.93065 18.8093 7.82262C19.4116 8.69375 19.4102 9.8574 18.8093 10.7415C18.4566 11.259 18.0881 11.7671 17.7664 12.304C17.4206 12.8797 17.2068 13.5144 17.1992 14.208C17.1958 14.5048 17.3257 14.6766 17.545 14.6745C17.7575 14.6723 17.8812 14.5113 17.8853 14.2238C17.8929 13.6366 18.0895 13.1062 18.3838 12.6239C18.6835 12.1337 19.0197 11.6658 19.3463 11.1936C20.4525 9.59219 19.9815 7.39425 18.3253 6.44262C17.0761 5.72531 15.519 6.01065 14.5468 7.13622C13.6022 8.23015 13.497 9.89047 14.3035 11.1008C14.5324 11.4444 14.7826 11.7729 15.0171 12.1128C15.5691 12.9099 15.9273 13.7724 15.8256 14.7873C15.8166 14.8685 15.818 14.9526 15.8256 15.0338C15.8496 15.2904 15.8187 15.4831 15.554 15.6282C15.277 15.7799 15.1566 16.0904 15.1408 16.4225C15.1291 16.6496 15.2611 16.8135 15.4536 16.8307C15.6372 16.848 15.785 16.7157 15.8235 16.5037C15.8771 16.204 15.97 16.117 16.2491 16.1156C16.6575 16.1134 17.0651 16.1134 17.4735 16.1156C17.741 16.117 17.8413 16.2104 17.8895 16.4907C17.928 16.7179 18.0792 16.8537 18.269 16.8307C18.4608 16.8077 18.5811 16.6424 18.5735 16.4131C18.5563 15.8669 18.1033 15.409 17.5588 15.3982C17.2171 15.3911 16.8761 15.3968 16.5138 15.3968V15.3954L16.5131 15.3947Z" fill="#005CFF"/>
<path d="M8.10693 9.64322C7.58031 9.64753 6.9265 9.81213 6.31462 10.1557C6.041 10.3095 5.95369 10.4942 6.05681 10.7041C6.16062 10.9125 6.36 10.9449 6.63156 10.7939C8.61637 9.69785 11.0164 10.7896 11.5891 13.0487C12.0979 15.054 10.8583 17.0923 8.88862 17.4891C6.9815 17.8736 5.10462 16.4613 4.8695 14.4387C4.82481 14.0506 4.86606 13.6495 4.89769 13.2571C4.91969 12.9833 4.84337 12.7971 4.63025 12.7533C4.43156 12.7123 4.27137 12.851 4.22118 13.109C3.77293 15.404 5.21943 17.7112 7.39468 18.1733C9.68337 18.6578 11.8731 17.1419 12.311 14.7701C12.7998 12.1157 10.8501 9.64035 8.10625 9.64322H8.10693Z" fill="#005CFF"/>
<path d="M8.23196 14.4854C8.11852 14.3553 8.02227 14.2468 7.92671 14.1376C6.88721 12.9523 5.84702 11.7664 4.80752 10.5812C4.77383 10.5424 4.74083 10.5028 4.70371 10.4669C4.55521 10.3311 4.37508 10.3275 4.23758 10.4554C4.10558 10.5783 4.08839 10.7824 4.19908 10.9427C4.23277 10.9909 4.27333 11.034 4.31252 11.0771C5.50602 12.4399 6.7009 13.8033 7.89577 15.1654C8.17421 15.4823 8.3399 15.4759 8.6094 15.1402C9.12296 14.4969 9.63583 13.8537 10.1487 13.2089C10.1762 13.1744 10.2044 13.1407 10.2291 13.104C10.346 12.9258 10.3254 12.7267 10.1803 12.6009C10.0332 12.4744 9.84208 12.4859 9.70252 12.6519C9.42958 12.9789 9.16902 13.316 8.90296 13.6488C8.68777 13.9183 8.4719 14.1886 8.2354 14.4847H8.23196V14.4854Z" fill="#005CFF"/>
<path d="M10.6926 5.33072C11.5665 5.33072 12.4396 5.33287 13.3134 5.32712C13.4158 5.32712 13.5554 5.31706 13.6125 5.25094C13.6922 5.15822 13.7685 4.98716 13.7376 4.88725C13.7025 4.77441 13.5568 4.6515 13.4399 4.62634C13.2405 4.58322 13.0274 4.61269 12.8191 4.61269H8.1159C8.05884 4.61269 8.00109 4.61053 7.94471 4.61269C7.7254 4.62419 7.58034 4.76794 7.58034 4.97062C7.58034 5.17331 7.7254 5.32425 7.94471 5.32784C8.38127 5.33359 8.81852 5.33 9.25509 5.33H10.694L10.6926 5.33144V5.33072Z" fill="#005CFF"/>
<path d="M11.3362 6.04947H9.38234C9.11284 6.04947 8.95334 6.18531 8.95334 6.40884C8.95334 6.63238 9.11147 6.76678 9.38234 6.76822H13.3341C13.6036 6.76822 13.7617 6.63238 13.7617 6.40884C13.7617 6.18531 13.6036 6.05091 13.3327 6.05091C12.6672 6.04947 12.0017 6.05091 11.3348 6.05091L11.3362 6.04947Z" fill="#005CFF"/>
</g>
<defs>
<clipPath id="clip0_593_438">
<rect width="22" height="23" fill="white" transform="matrix(-1 0 0 1 22 0.5)"/>
</clipPath>
</defs>
</svg>
