<svg width="12" height="17" viewBox="0 0 12 17" fill="none" xmlns="http://www.w3.org/2000/svg">
<g clip-path="url(#clip0_588_395)">
<path d="M4.43735 8.80476C4.43735 10.6998 4.43343 12.5939 4.44388 14.4889C4.44388 14.6443 4.50788 14.8128 4.60715 14.9514C4.92325 15.3971 5.26417 15.8334 5.60509 16.2697C5.84412 16.5758 6.15107 16.5758 6.39664 16.2697C6.74931 15.8278 7.09937 15.384 7.43245 14.9345C7.51082 14.8278 7.55654 14.6949 7.55654 14.5741C7.56307 10.7391 7.56176 6.90506 7.56046 3.07007C7.56046 2.64594 7.32795 2.48303 6.7258 2.48022C6.24381 2.47741 5.76313 2.47741 5.28115 2.48022C4.66201 2.48397 4.43996 2.64313 4.43996 3.09442C4.43735 4.99786 4.43996 6.90225 4.43996 8.80569L4.43735 8.80476ZM5.99302 15.6574C5.81277 15.4214 5.67693 15.2154 5.5032 15.0272C5.24849 14.7492 5.17927 14.4542 5.18188 14.1247C5.19755 12.3495 5.18841 10.5743 5.18972 8.7982C5.18972 8.69334 5.20278 8.58848 5.20931 8.48549H6.80809V8.83565C6.80809 10.5294 6.75715 12.2231 6.8316 13.9159C6.86164 14.5937 6.4724 15.0975 5.99302 15.6564V15.6574ZM6.77805 3.03075V6.76462H5.21323V3.03075H6.77805ZM5.21061 7.36009H6.77935V7.91904H5.21061V7.36009Z" fill="#005CFF"/>
<path d="M-8.32081e-05 8.79539C-8.32081e-05 10.6811 -0.00530815 12.5667 0.00906014 14.4524C0.00906014 14.634 0.0887382 14.8287 0.202377 14.9926C0.494965 15.4158 0.816288 15.8296 1.15067 16.2369C1.23558 16.3408 1.41191 16.4663 1.55168 16.4691C1.68883 16.4719 1.87822 16.3521 1.96313 16.251C2.32364 15.8231 2.66194 15.3858 2.98849 14.9439C3.07339 14.8288 3.12433 14.6864 3.12433 14.5572C3.13086 10.7316 3.13086 6.90506 3.12825 3.07944C3.12825 2.64688 2.89836 2.4849 2.30143 2.48022C1.88345 2.47648 1.46547 2.47741 1.04748 2.48022C0.152742 2.48303 -8.32081e-05 2.59538 -8.32081e-05 3.24984V8.79727V8.79539ZM2.38111 8.46395V8.82161C2.38111 10.5884 2.34584 12.356 2.4007 14.1228C2.42029 14.7389 1.9148 15.1358 1.57257 15.6667C1.3662 15.4008 1.21729 15.1799 1.03442 14.9757C0.800614 14.7127 0.728774 14.4365 0.731386 14.1237C0.748366 12.5751 0.737916 11.0275 0.737916 9.47888C0.737916 9.20548 0.726161 8.93209 0.74706 8.6587C0.752284 8.59129 0.854167 8.47332 0.915559 8.47238C1.39232 8.45646 1.87039 8.46302 2.38241 8.46302L2.38111 8.46395ZM2.35498 3.02981V6.76368H0.761428V3.02981H2.35498ZM2.34845 7.35353V7.92185H0.769265V7.35353H2.34845Z" fill="#005CFF"/>
<path d="M12 8.82536V3.16932C12 2.60943 11.8197 2.48116 11.0373 2.47928C10.5814 2.47928 10.1243 2.47554 9.66842 2.48116C9.13549 2.48677 8.91213 2.64126 8.87556 3.02513C8.86772 3.10752 8.87033 3.18898 8.87033 3.27137C8.87033 6.97902 8.86511 10.6857 8.87817 14.3934C8.87817 14.6003 8.9683 14.8231 9.095 15.0113C9.38889 15.4439 9.72589 15.8624 10.0551 16.2818C10.281 16.5712 10.5984 16.573 10.827 16.2875C11.1849 15.8371 11.5467 15.3877 11.8798 14.928C11.9673 14.8072 11.9961 14.6499 11.9961 14.5095C12.0026 12.6145 12 10.7194 12 8.82629V8.82536ZM9.62009 8.46114C10.042 8.46114 10.4338 8.47613 10.8192 8.45646C11.1588 8.43961 11.2724 8.50796 11.2698 8.76918C11.2528 10.564 11.2306 12.3589 11.2776 14.1537C11.2933 14.7604 10.7826 15.1499 10.4417 15.6686C10.2458 15.413 10.1047 15.1986 9.92574 15.002C9.68017 14.7314 9.60703 14.4467 9.60964 14.1256C9.62662 12.3589 9.61748 10.5902 9.61748 8.82348V8.46208H9.62009V8.46114ZM11.2358 3.02981V6.76368H9.64621V3.02981H11.2358ZM9.64229 7.92934V7.3554H11.2293V7.92934H9.64229Z" fill="#005CFF"/>
<path d="M1.57781 1.58988C1.70842 2.0318 1.8508 2.11606 2.44512 2.11887C3.10344 2.12168 3.76176 2.12168 4.42139 2.11887C5.09147 2.11606 5.19466 2.05895 5.40626 1.59081H6.59228C6.77515 2.04865 6.89793 2.117 7.55756 2.11887C8.21588 2.12074 8.8742 2.12074 9.53383 2.11887C10.1451 2.117 10.2771 2.0421 10.4442 1.58988C10.7695 1.58988 11.1104 1.60111 11.4474 1.58519C11.6015 1.5777 11.7818 1.54306 11.8928 1.47284C11.9699 1.42322 12.0065 1.27154 11.9568 1.20788C11.8954 1.12923 11.7295 1.0562 11.6015 1.04871C11.2136 1.02905 10.823 1.04122 10.4482 1.04122C10.2705 0.574954 10.1399 0.502861 9.50248 0.500052C8.85722 0.500052 8.21066 0.500052 7.56409 0.500052C6.90577 0.500052 6.78299 0.566527 6.58706 1.02437H5.42585C5.11628 0.503797 5.11106 0.500052 4.30775 0.500052C3.68861 0.500052 3.06687 0.499116 2.44642 0.500052C1.86778 0.501924 1.71365 0.591807 1.57127 1.03841C1.2382 1.03841 0.890747 1.03841 0.540688 1.03841C0.287286 1.03841 0.0273542 1.0562 0.0169048 1.29308C0.00514889 1.54119 0.270306 1.58145 0.538075 1.58707C0.878992 1.59456 1.2186 1.58894 1.57781 1.58894V1.58988ZM7.42955 1.57396V1.04965H9.61873V1.57396H7.42955ZM4.58336 1.57864H2.39548V1.04871H4.58336V1.57864Z" fill="#005CFF"/>
</g>
<defs>
<clipPath id="clip0_588_395">
<rect width="12" height="16" fill="white" transform="matrix(-1 0 0 1 12 0.5)"/>
</clipPath>
</defs>
</svg>
