<svg width="23" height="23" viewBox="0 0 23 23" fill="none" xmlns="http://www.w3.org/2000/svg">
<path d="M15.7192 4.02481C15.7192 4.65043 15.7293 5.26643 15.7164 5.88175C15.7042 6.41868 15.2808 6.80437 14.7187 6.80437C12.3145 6.80712 9.91103 6.80712 7.50681 6.80437C6.97494 6.80437 6.54872 6.44481 6.52716 5.93812C6.49984 5.30768 6.52069 4.67587 6.52069 4.03168C5.97372 4.03168 5.37572 4.00006 4.78347 4.04131C4.28897 4.07637 4.01225 4.42562 4.01225 4.89931V20.4677C4.01225 20.9731 4.31484 21.2914 4.84456 21.3457C4.95813 21.3574 5.07456 21.3594 5.18956 21.3594H17.0561C17.2092 21.3594 17.3652 21.356 17.5147 21.3299C17.9502 21.2529 18.2205 20.9332 18.2248 20.5056C18.2277 20.1151 18.2227 19.7252 18.227 19.3354C18.2291 19.0941 18.3341 18.9766 18.5332 18.9814C18.7258 18.9862 18.8192 19.0948 18.8199 19.3286C18.8221 19.7259 18.8228 20.1233 18.8199 20.5207C18.8142 21.2501 18.2493 21.8393 17.4888 21.9122C17.3666 21.9239 17.2437 21.9259 17.1201 21.9259C13.1188 21.9259 9.11753 21.9252 5.11553 21.9287C4.63541 21.9287 4.20272 21.8304 3.84694 21.5052C3.54794 21.2309 3.41425 20.8947 3.41569 20.4959C3.42072 18.4788 3.41784 16.4617 3.41784 14.4459C3.41784 11.2889 3.43581 8.13056 3.40778 4.97287C3.39916 3.98081 4.22859 3.44043 4.99838 3.44662C6.21234 3.45625 7.42559 3.44662 8.63884 3.45281C8.79769 3.45281 8.87675 3.40675 8.95222 3.26925C9.66953 1.952 11.2587 1.53881 12.4626 2.35143C12.8205 2.59343 13.1016 2.9035 13.2928 3.28025C13.3596 3.41362 13.4394 3.4535 13.591 3.45281C14.8201 3.44662 16.0484 3.44593 17.2775 3.45075C18.0257 3.45418 18.6381 3.90243 18.7912 4.54525C18.8084 4.61606 18.8185 4.691 18.8185 4.76387C18.8214 5.55862 18.8221 6.35406 18.8207 7.14881C18.8207 7.3585 18.7114 7.46781 18.5252 7.46712C18.3427 7.46643 18.2298 7.35369 18.2284 7.14537C18.2234 6.4015 18.2284 5.659 18.2255 4.91512C18.2248 4.41325 17.915 4.05918 17.399 4.03375C16.8254 4.00556 16.249 4.02756 15.7207 4.02756V4.0255L15.7192 4.02481ZM11.1092 6.23581C12.2922 6.23581 13.4739 6.2365 14.6562 6.23581C14.9868 6.23581 15.1205 6.10931 15.1227 5.79718C15.1256 5.34825 15.1263 4.9 15.1227 4.45106C15.1198 4.15131 14.9825 4.02275 14.6684 4.02137C14.23 4.01862 13.793 4.01312 13.356 4.02412C13.1296 4.02962 13.006 3.94231 12.9255 3.74156C12.6135 2.96606 11.9329 2.51025 11.1135 2.51025C10.2941 2.51025 9.61706 2.97156 9.30441 3.74568C9.22247 3.94987 9.09381 4.02893 8.871 4.02343C8.44909 4.01381 8.02647 4.02 7.60456 4.02068C7.23513 4.02137 7.11222 4.141 7.11078 4.50193C7.11006 4.91375 7.11078 5.32625 7.11078 5.73875C7.11078 6.12718 7.22578 6.23718 7.62972 6.23787H11.1085V6.23581H11.1092Z" fill="#005CFF"/>
<path d="M21.3138 11.2174C21.3511 12.2006 21.2527 13.3391 20.8804 14.4459C20.3169 16.1214 19.2538 17.4537 17.7976 18.4987C17.2277 18.9071 16.6067 19.2488 15.9972 19.6042C15.8973 19.662 15.7133 19.6812 15.6155 19.6331C14.0609 18.8487 12.688 17.8518 11.6868 16.4404C10.7259 15.086 10.2889 13.5735 10.2457 11.9503C10.227 11.2374 10.2457 10.5224 10.2364 9.80806C10.2335 9.597 10.327 9.48425 10.5275 9.41756C12.2158 8.85794 13.902 8.2935 15.5918 7.73868C15.7046 7.70156 15.8534 7.70087 15.9663 7.738C17.656 8.29281 19.3415 8.85862 21.0299 9.41756C21.2333 9.48494 21.3231 9.60044 21.3174 9.80944C21.3073 10.2212 21.3145 10.6337 21.3145 11.2174H21.3138ZM20.7194 11.3673C20.7194 10.8496 20.7136 10.4804 20.7222 10.1126C20.7258 9.97512 20.6856 9.90294 20.5425 9.8555C19.0051 9.3495 17.472 8.83594 15.9346 8.33062C15.8426 8.30037 15.7205 8.299 15.6285 8.32993C14.0839 8.83731 12.5429 9.35362 10.999 9.86306C10.8825 9.90156 10.8279 9.94831 10.8301 10.0782C10.8401 10.785 10.815 11.4931 10.8495 12.1978C10.9192 13.5893 11.3066 14.8914 12.1224 16.0602C13.0251 17.3541 14.2736 18.2643 15.6773 19.002C15.7384 19.0343 15.857 19.0144 15.9239 18.9779C16.2753 18.7827 16.6282 18.5874 16.9646 18.3688C18.3683 17.4586 19.4867 16.3159 20.1293 14.7862C20.6108 13.6388 20.7517 12.4412 20.7186 11.3673H20.7194Z" fill="#005CFF"/>
<path d="M8.42248 18.0148H10.9309C10.9992 18.0148 11.0689 18.0127 11.1379 18.0182C11.2975 18.0319 11.3916 18.1179 11.4024 18.2719C11.4139 18.4348 11.332 18.54 11.1616 18.5689C11.0862 18.5813 11.0093 18.5813 10.9324 18.5826H5.93848C5.5906 18.5826 5.44326 18.4919 5.45045 18.2849C5.45763 18.0856 5.5827 18.0154 5.93632 18.0154H8.4232L8.42248 18.0148Z" fill="#005CFF"/>
<path d="M7.98323 16.296H10.1251C10.3903 16.296 10.5096 16.3813 10.5168 16.5676C10.524 16.7601 10.3889 16.8673 10.1258 16.8673C8.69767 16.868 7.27095 16.868 5.8428 16.8673C5.59627 16.8673 5.46042 16.7601 5.45898 16.5793C5.45898 16.3957 5.5898 16.296 5.84136 16.296C6.55508 16.2939 7.26952 16.296 7.98323 16.296Z" fill="#005CFF"/>
<path d="M7.34987 14.5786C7.84941 14.5786 8.3475 14.5766 8.84631 14.5786C9.09644 14.5793 9.22869 14.6831 9.22725 14.8653C9.22581 15.0475 9.09356 15.1493 8.84272 15.1493C7.83791 15.1513 6.83166 15.1513 5.82684 15.1493C5.58319 15.1493 5.45166 15.042 5.44878 14.8564C5.44591 14.6701 5.56737 14.5793 5.83044 14.5786C6.33716 14.5766 6.84316 14.5786 7.34987 14.5786Z" fill="#005CFF"/>
<path d="M7.31491 11.7159C6.80891 11.7159 6.30219 11.7152 5.79691 11.7159C5.62298 11.7159 5.49576 11.654 5.45551 11.4842C5.40663 11.2821 5.54463 11.1487 5.81776 11.1466C6.40785 11.1432 6.99866 11.1459 7.58876 11.1459C8.01857 11.1459 8.44838 11.1336 8.87676 11.1549C8.99032 11.1604 9.1276 11.2511 9.19948 11.3419C9.24116 11.3948 9.20451 11.5577 9.14485 11.6141C9.07513 11.6794 8.94144 11.7083 8.83435 11.7111C8.32835 11.72 7.82163 11.7159 7.31635 11.7145H7.31563L7.31491 11.7159Z" fill="#005CFF"/>
<path d="M7.31834 13.4319C6.82024 13.4319 6.32143 13.4339 5.82334 13.4319C5.57537 13.4312 5.44384 13.326 5.44887 13.1418C5.4539 12.9685 5.58328 12.8619 5.81615 12.8619C6.82743 12.8592 7.83943 12.8592 8.85071 12.8619C9.09509 12.8619 9.2295 12.9754 9.22518 13.1576C9.22015 13.3356 9.09724 13.4312 8.85862 13.4319C8.34543 13.4346 7.83224 13.4319 7.31762 13.4319H7.31834Z" fill="#005CFF"/>
<path d="M7.33843 9.43819C7.84515 9.43819 8.35186 9.43613 8.85858 9.43819C9.10008 9.44025 9.22227 9.53513 9.22586 9.71181C9.22946 9.88919 9.1044 9.9985 8.8708 9.99988C7.84946 10.0033 6.82811 10.0033 5.80677 9.99988C5.57174 9.99988 5.44668 9.88988 5.45027 9.71319C5.45315 9.53719 5.57605 9.43956 5.81683 9.43888C6.32355 9.43613 6.83027 9.43888 7.33699 9.43819H7.33771H7.33843Z" fill="#005CFF"/>
<path d="M11.1197 3.30499C11.7515 3.30568 12.2654 3.80824 12.264 4.42287C12.2633 5.03681 11.7458 5.53799 11.114 5.53731C10.4844 5.53662 9.96829 5.03131 9.96973 4.41874C9.97189 3.80343 10.4865 3.30431 11.1183 3.30637H11.119L11.1197 3.30499ZM11.1176 3.87631C10.8128 3.87631 10.5742 4.10731 10.5684 4.41049C10.562 4.71987 10.8071 4.96874 11.1176 4.96874C11.4281 4.96874 11.6609 4.73293 11.6674 4.43181C11.6739 4.12174 11.4302 3.87631 11.1176 3.87631Z" fill="#005CFF"/>
<path d="M15.7652 15.6388C15.4964 15.6388 15.2275 15.6408 14.9594 15.6388C14.5289 15.6353 14.2917 15.361 14.383 14.9609C14.4786 14.5374 14.5756 14.1139 14.6906 13.6945C14.7388 13.5213 14.71 13.403 14.5864 13.2628C14.0854 12.7018 14.0646 12.0259 14.5066 11.4429C14.9364 10.8764 15.6847 10.6626 16.3481 10.9156C17.0072 11.1673 17.4341 11.852 17.3514 12.5216C17.3119 12.8365 17.125 13.0744 16.9339 13.3178C16.872 13.3968 16.8339 13.5309 16.8541 13.6271C16.9454 14.0658 17.0625 14.5003 17.1653 14.9375C17.2652 15.3638 17.0316 15.6374 16.5723 15.6388C16.3035 15.6394 16.0347 15.6388 15.7666 15.6388H15.7652ZM16.5845 15.0558C16.4753 14.6041 16.3862 14.1716 16.2633 13.7481C16.1871 13.4848 16.2237 13.3033 16.4494 13.1094C16.78 12.8241 16.849 12.4405 16.7039 12.0376C16.5702 11.6664 16.2999 11.434 15.8838 11.39C15.4468 11.3433 15.0658 11.5612 14.8818 11.9469C14.6921 12.3463 14.7668 12.8413 15.1111 13.1211C15.3368 13.3047 15.3648 13.4841 15.2915 13.7392C15.1672 14.1689 15.0759 14.6061 14.9674 15.0558H16.5845Z" fill="#005CFF"/>
</svg>
