<?xml version="1.0" encoding="UTF-8"?>
<svg id="Layer_1" data-name="Layer 1" xmlns="http://www.w3.org/2000/svg" viewBox="0 0 19.17 19.17">
  <defs>
    <style>
      .cls-1 {
        fill: none;
        stroke: #0f172a;
      }

      .cls-2 {
        fill: #0f172a;
        fill-rule: evenodd;
        stroke-width: 0px;
      }
    </style>
  </defs>
  <path class="cls-2" d="M3.93,15.53c1.28-1.79,3.37-2.95,5.72-2.95s4.37,1.13,5.66,2.87c-1.47,1.47-3.5,2.37-5.73,2.37s-4.18-.87-5.65-2.29ZM12.84,7.71c0,1.86-1.43,3.37-3.19,3.37s-3.19-1.51-3.19-3.37,1.43-3.37,3.19-3.37,3.19,1.51,3.19,3.37Z"/>
  <path class="cls-1" d="M3.62,15.21l-.28.39.34.32c1.54,1.49,3.62,2.4,5.9,2.4s4.44-.94,5.99-2.48l.33-.33-.29-.39c-1.37-1.86-3.54-3.04-5.97-3.04s-4.67,1.22-6.03,3.13h.01ZM9.58.5c5.09,0,9.09,4.15,9.09,9.09s-3.99,9.08-9.08,9.08S.5,14.52.5,9.58,4.49.5,9.59.5h-.01ZM9.58,17.32c-1.93,0-3.68-.7-5.03-1.85,1.21-1.45,3.04-2.39,5.1-2.39s3.83.91,5.04,2.32c-1.36,1.19-3.15,1.93-5.12,1.93h.01ZM12.43,7.71c0,1.52-1.19,2.87-2.78,2.87s-2.78-1.35-2.78-2.87,1.19-2.87,2.78-2.87,2.78,1.35,2.78,2.87ZM9.65,11.58c1.94,0,3.6-1.67,3.6-3.87s-1.67-3.87-3.61-3.87-3.6,1.67-3.6,3.87,1.67,3.87,3.61,3.87Z"/>
</svg>