<svg width="18" height="22" viewBox="0 0 18 22" fill="none" xmlns="http://www.w3.org/2000/svg">
<path d="M8.99998 21.635C8.70478 21.635 8.43118 21.5036 8.27998 21.2847L7.03438 19.4963C4.47118 15.8102 2.05198 12.3285 1.22398 10.927C0.640783 9.9197 0.352783 8.83211 0.352783 7.70803C0.352783 3.65693 4.22638 0.36496 8.99278 0.36496C13.7592 0.36496 17.6328 3.65693 17.6328 7.70803C17.6328 8.83211 17.3376 9.9124 16.7616 10.9197C16.7616 10.927 16.7472 10.9416 16.7472 10.9489C15.912 12.365 13.5 15.8321 10.9512 19.4963L9.70558 21.2847C9.55438 21.5036 9.28078 21.635 8.98558 21.635H8.99998Z" stroke="#007CBE" stroke-width="1.2" stroke-miterlimit="10"/>
<path d="M8.99995 10.9051C6.75355 10.9051 4.93195 9.35036 4.93195 7.44525C4.93195 5.54014 6.76075 3.9854 8.99995 3.9854C11.2391 3.9854 13.0679 5.54014 13.0679 7.44525C13.0679 9.35036 11.2391 10.9051 8.99995 10.9051Z" stroke="#007CBE" stroke-width="1.2" stroke-miterlimit="10"/>
</svg>
